<svg width="40" height="40" viewBox="0 0 40 40" fill="none" xmlns="http://www.w3.org/2000/svg">
    <path d="M0 20C0 2.4 2.4 0 20 0C37.6 0 40 2.4 40 20C40 37.6 37.6 40 20 40C2.4 40 0 37.6 0 20Z" fill="url(#paint0_linear_0_1)"/>
    <path d="M17 28.25C17 28.5467 16.912 28.8367 16.7472 29.0834C16.5824 29.33 16.3481 29.5223 16.074 29.6358C15.7999 29.7494 15.4983 29.7791 15.2074 29.7212C14.9164 29.6633 14.6491 29.5204 14.4393 29.3107C14.2296 29.1009 14.0867 28.8336 14.0288 28.5426C13.9709 28.2517 14.0006 27.9501 14.1142 27.676C14.2277 27.4019 14.42 27.1676 14.6666 27.0028C14.9133 26.838 15.2033 26.75 15.5 26.75C15.8978 26.75 16.2794 26.908 16.5607 27.1893C16.842 27.4706 17 27.8522 17 28.25ZM25.25 26.75C24.9533 26.75 24.6633 26.838 24.4166 27.0028C24.17 27.1676 23.9777 27.4019 23.8642 27.676C23.7506 27.9501 23.7209 28.2517 23.7788 28.5426C23.8367 28.8336 23.9796 29.1009 24.1893 29.3107C24.3991 29.5204 24.6664 29.6633 24.9574 29.7212C25.2483 29.7791 25.5499 29.7494 25.824 29.6358C26.0981 29.5223 26.3324 29.33 26.4972 29.0834C26.662 28.8367 26.75 28.5467 26.75 28.25C26.75 27.8522 26.592 27.4706 26.3107 27.1893C26.0294 26.908 25.6478 26.75 25.25 26.75ZM29.3844 14.3C29.314 14.2074 29.2233 14.1322 29.1193 14.0802C29.0153 14.0281 28.9007 14.0007 28.7844 14H12.5281L11.7688 11.3375C11.6777 11.0247 11.4879 10.7498 11.2277 10.5537C10.9674 10.3577 10.6508 10.2512 10.325 10.25H8.75C8.55109 10.25 8.36032 10.329 8.21967 10.4697C8.07902 10.6103 8 10.8011 8 11C8 11.1989 8.07902 11.3897 8.21967 11.5303C8.36032 11.671 8.55109 11.75 8.75 11.75H10.325L11.2437 14.9469V14.9656L13.7188 23.6188C13.8547 24.0883 14.1392 24.5012 14.5297 24.7953C14.9202 25.0894 15.3955 25.249 15.8844 25.25H24.8656C25.3545 25.249 25.8298 25.0894 26.2203 24.7953C26.6108 24.5012 26.8953 24.0883 27.0312 23.6188L29.5062 14.9562C29.538 14.8449 29.5435 14.7277 29.5223 14.6138C29.5012 14.5 29.454 14.3926 29.3844 14.3Z" fill="white"/>
    <defs>
        <linearGradient id="paint0_linear_0_1" x1="20" y1="0" x2="20" y2="40" gradientUnits="userSpaceOnUse">
            <stop stop-color="#E1D24A"/>
            <stop offset="1" stop-color="#C69223"/>
        </linearGradient>
    </defs>
</svg>