<svg width="19" height="20" viewBox="0 0 19 20" fill="none" xmlns="http://www.w3.org/2000/svg">
    <path d="M2.6543 9.82422C2.6543 11.6146 2.93099 13.2324 3.48438 14.6777C4.03776 16.123 4.93945 17.6139 6.18945 19.1504H4.33398C3.08398 17.6139 2.18555 16.1263 1.63867 14.6875C1.09831 13.2422 0.828125 11.6146 0.828125 9.80469C0.828125 8.02734 1.09505 6.42578 1.62891 5C2.16276 3.56771 3.06445 2.07031 4.33398 0.507812H6.18945C4.93945 2.04427 4.03776 3.53841 3.48438 4.99023C2.93099 6.43555 2.6543 8.04688 2.6543 9.82422ZM18.1426 9.80469C18.1426 11.6276 17.8724 13.2585 17.332 14.6973C16.7982 16.1296 15.9062 17.6139 14.6562 19.1504H12.7812C14.0573 17.5814 14.9688 16.0742 15.5156 14.6289C16.0625 13.1771 16.3359 11.5755 16.3359 9.82422C16.3359 8.07943 16.0625 6.48438 15.5156 5.03906C14.9688 3.58724 14.0573 2.07682 12.7812 0.507812H14.6562C15.9258 2.07031 16.8242 3.5612 17.3516 4.98047C17.8789 6.39974 18.1426 8.00781 18.1426 9.80469Z" fill="#4DC722"/>
</svg>