<svg width="32" height="32" viewBox="0 0 32 32" fill="none" xmlns="http://www.w3.org/2000/svg">
    <circle cx="16" cy="16" r="15.25" stroke="url(#paint0_linear_0_1)" stroke-width="1.5"/>
    <path d="M20.5714 12.7143V11.5714C20.5714 9.05071 18.5207 7 16 7C13.4793 7 11.4286 9.05071 11.4286 11.5714V12.7143H8V22.4286C8 24.0065 9.27918 25.2857 10.8571 25.2857H21.1429C22.7208 25.2857 24 24.0065 24 22.4286V12.7143H20.5714ZM13.7143 11.5714C13.7143 10.3111 14.7396 9.28571 16 9.28571C17.2604 9.28571 18.2857 10.3111 18.2857 11.5714V12.7143H13.7143V11.5714ZM19.4286 15.8571C18.9552 15.8571 18.5714 15.4734 18.5714 15C18.5714 14.5266 18.9552 14.1429 19.4286 14.1429C19.902 14.1429 20.2857 14.5266 20.2857 15C20.2857 15.4734 19.902 15.8571 19.4286 15.8571ZM12.5714 15.8571C12.098 15.8571 11.7143 15.4734 11.7143 15C11.7143 14.5266 12.098 14.1429 12.5714 14.1429C13.0448 14.1429 13.4286 14.5266 13.4286 15C13.4286 15.4734 13.0448 15.8571 12.5714 15.8571Z" fill="url(#paint1_linear_0_1)"/>
    <defs>
        <linearGradient id="paint0_linear_0_1" x1="16" y1="0" x2="16" y2="32" gradientUnits="userSpaceOnUse">
            <stop stop-color="#E1D24A"/>
            <stop offset="1" stop-color="#C69223"/>
        </linearGradient>
        <linearGradient id="paint1_linear_0_1" x1="16" y1="7" x2="16" y2="25.2857" gradientUnits="userSpaceOnUse">
            <stop stop-color="#E1D24A"/>
            <stop offset="1" stop-color="#C69223"/>
        </linearGradient>
    </defs>
</svg>