<svg width="16" height="22" viewBox="0 0 16 22" fill="none" xmlns="http://www.w3.org/2000/svg">
    <path d="M3.09082 11.0244C3.09082 13.6904 3.50586 15.6924 4.33594 17.0303C5.17578 18.3584 6.45508 19.0225 8.17383 19.0225C9.16016 19.0225 10.0537 18.6904 10.8545 18.0264C11.6553 17.3525 12.334 16.3076 12.8906 14.8916L15.2197 15.8438C13.7646 19.4766 11.4062 21.293 8.14453 21.293C5.57617 21.293 3.59863 20.4092 2.21191 18.6416C0.834961 16.874 0.146484 14.335 0.146484 11.0244C0.146484 4.2959 2.76367 0.931641 7.99805 0.931641C11.3086 0.931641 13.584 2.56738 14.8242 5.83887L12.3633 6.79102C12.002 5.6875 11.4355 4.81836 10.6641 4.18359C9.90234 3.53906 9.01855 3.2168 8.0127 3.2168C6.34277 3.2168 5.10254 3.84668 4.29199 5.10645C3.49121 6.36621 3.09082 8.33887 3.09082 11.0244Z" fill="#FF4D00"/>
</svg>