<svg width="17" height="20" viewBox="0 0 17 20" fill="none" xmlns="http://www.w3.org/2000/svg">
    <path d="M9.15625 15.7273V14.8068C9.15625 14.108 9.30398 13.4659 9.59943 12.8807C9.90057 12.2898 10.3352 11.8182 10.9034 11.4659C11.4773 11.108 12.1761 10.929 13 10.929C13.8352 10.929 14.5369 11.1051 15.1051 11.4574C15.679 11.8097 16.1108 12.2812 16.4006 12.8722C16.696 13.4574 16.8438 14.1023 16.8438 14.8068V15.7273C16.8438 16.4261 16.696 17.071 16.4006 17.6619C16.1051 18.2472 15.6705 18.7159 15.0966 19.0682C14.5227 19.4261 13.8239 19.6051 13 19.6051C12.1648 19.6051 11.4631 19.4261 10.8949 19.0682C10.3267 18.7159 9.89489 18.2472 9.59943 17.6619C9.30398 17.071 9.15625 16.4261 9.15625 15.7273ZM11.6364 14.8068V15.7273C11.6364 16.1307 11.733 16.5114 11.9261 16.8693C12.125 17.2273 12.483 17.4062 13 17.4062C13.517 17.4062 13.8693 17.2301 14.0568 16.8778C14.25 16.5256 14.3466 16.142 14.3466 15.7273V14.8068C14.3466 14.392 14.2557 14.0057 14.0739 13.6477C13.892 13.2898 13.5341 13.1108 13 13.1108C12.4886 13.1108 12.1335 13.2898 11.9347 13.6477C11.7358 14.0057 11.6364 14.392 11.6364 14.8068ZM0.198864 5.73864V4.81818C0.198864 4.11364 0.349432 3.46875 0.650568 2.88352C0.951705 2.29261 1.38636 1.82102 1.95455 1.46875C2.52841 1.11648 3.22159 0.940341 4.03409 0.940341C4.875 0.940341 5.57955 1.11648 6.14773 1.46875C6.71591 1.82102 7.14773 2.29261 7.44318 2.88352C7.73864 3.46875 7.88636 4.11364 7.88636 4.81818V5.73864C7.88636 6.44318 7.7358 7.08807 7.43466 7.6733C7.1392 8.25852 6.70455 8.72727 6.13068 9.07955C5.5625 9.42614 4.86364 9.59943 4.03409 9.59943C3.20455 9.59943 2.50284 9.4233 1.92898 9.07102C1.3608 8.71307 0.928977 8.24432 0.633523 7.66477C0.34375 7.07954 0.198864 6.4375 0.198864 5.73864ZM2.69602 4.81818V5.73864C2.69602 6.15341 2.79261 6.53693 2.9858 6.8892C3.18466 7.24148 3.53409 7.41761 4.03409 7.41761C4.55682 7.41761 4.91193 7.24148 5.09943 6.8892C5.29261 6.53693 5.3892 6.15341 5.3892 5.73864V4.81818C5.3892 4.40341 5.2983 4.01705 5.11648 3.65909C4.93466 3.30114 4.57386 3.12216 4.03409 3.12216C3.52841 3.12216 3.17898 3.30398 2.9858 3.66761C2.79261 4.03125 2.69602 4.41477 2.69602 4.81818ZM1.32386 19L13.3239 1.54545H15.5568L3.55682 19H1.32386Z" fill="#4DC722"/>
</svg>