<svg width="19" height="21" viewBox="0 0 19 21" fill="none" xmlns="http://www.w3.org/2000/svg">
    <path d="M18.5891 9.04545V12.2273H0.407316V9.04545H18.5891ZM9.49822 20.5227C8.788 20.5227 8.18194 20.2765 7.68004 19.7841C7.18762 19.2822 6.94141 18.6761 6.94141 17.9659C6.94141 17.2841 7.18762 16.697 7.68004 16.2045C8.18194 15.7121 8.788 15.4659 9.49822 15.4659C10.18 15.4659 10.7672 15.7121 11.2596 16.2045C11.752 16.697 11.9982 17.2841 11.9982 17.9659C11.9982 18.6761 11.752 19.2822 11.2596 19.7841C10.7672 20.2765 10.18 20.5227 9.49822 20.5227ZM9.49822 5.80682C9.02474 5.80682 8.59387 5.69318 8.20561 5.46591C7.81735 5.23864 7.50959 4.93087 7.28232 4.54261C7.05504 4.15436 6.94141 3.72348 6.94141 3.25C6.94141 2.56818 7.18762 1.98106 7.68004 1.48864C8.18194 0.996212 8.788 0.75 9.49822 0.75C10.18 0.75 10.7672 0.996212 11.2596 1.48864C11.752 1.98106 11.9982 2.56818 11.9982 3.25C11.9982 3.96023 11.752 4.56629 11.2596 5.06818C10.7672 5.56061 10.18 5.80682 9.49822 5.80682Z" fill="#4DC722"/>
</svg>